<svg width="19" height="19" viewBox="0 0 19 19" fill="none" xmlns="http://www.w3.org/2000/svg">
<path d="M14.5911 14.7727C13.6325 14.7727 12.8639 15.5414 12.8639 16.5C12.8639 16.9581 13.0458 17.3975 13.3698 17.7214C13.6937 18.0453 14.133 18.2273 14.5911 18.2273C15.0492 18.2273 15.4886 18.0453 15.8125 17.7214C16.1364 17.3975 16.3184 16.9581 16.3184 16.5C16.3184 16.0419 16.1364 15.6026 15.8125 15.2786C15.4886 14.9547 15.0492 14.7727 14.5911 14.7727ZM0.772949 0.954559V2.68183H2.50022L5.60931 9.23683L4.43477 11.3527C4.30522 11.5946 4.22749 11.8796 4.22749 12.1818C4.22749 12.6399 4.40947 13.0793 4.7334 13.4032C5.05733 13.7271 5.49667 13.9091 5.95477 13.9091H16.3184V12.1818H6.31749C6.26023 12.1818 6.20531 12.1591 6.16482 12.1186C6.12433 12.0781 6.10159 12.0232 6.10159 11.9659C6.10159 11.9227 6.11022 11.8882 6.12749 11.8623L6.90477 10.4546H13.3389C13.9866 10.4546 14.5566 10.0918 14.8502 9.56501L17.942 3.97729C18.0025 3.8391 18.0457 3.69229 18.0457 3.54547C18.0457 3.31642 17.9547 3.09675 17.7927 2.93479C17.6308 2.77282 17.4111 2.68183 17.182 2.68183H4.40886L3.59704 0.954559M5.95477 14.7727C4.99613 14.7727 4.22749 15.5414 4.22749 16.5C4.22749 16.9581 4.40947 17.3975 4.7334 17.7214C5.05733 18.0453 5.49667 18.2273 5.95477 18.2273C6.41287 18.2273 6.85221 18.0453 7.17613 17.7214C7.50006 17.3975 7.68204 16.9581 7.68204 16.5C7.68204 16.0419 7.50006 15.6026 7.17613 15.2786C6.85221 14.9547 6.41287 14.7727 5.95477 14.7727Z" fill="white"/>
</svg>
