<svg width="46" height="46" viewBox="0 0 46 46" fill="none" xmlns="http://www.w3.org/2000/svg">
<circle cx="23" cy="23" r="23" fill="white"/>
<path d="M27.8 27.8C26.912 27.8 26.2 28.512 26.2 29.4C26.2 29.8243 26.3686 30.2313 26.6686 30.5314C26.9687 30.8314 27.3757 31 27.8 31C28.2243 31 28.6313 30.8314 28.9314 30.5314C29.2314 30.2313 29.4 29.8243 29.4 29.4C29.4 28.9757 29.2314 28.5687 28.9314 28.2686C28.6313 27.9686 28.2243 27.8 27.8 27.8ZM15 15V16.6H16.6L19.48 22.672L18.392 24.632C18.272 24.856 18.2 25.12 18.2 25.4C18.2 25.8243 18.3686 26.2313 18.6686 26.5314C18.9687 26.8314 19.3757 27 19.8 27H29.4V25.4H20.136C20.083 25.4 20.0321 25.3789 19.9946 25.3414C19.9571 25.3039 19.936 25.253 19.936 25.2C19.936 25.16 19.944 25.128 19.96 25.104L20.68 23.8H26.64C27.24 23.8 27.768 23.464 28.04 22.976L30.904 17.8C30.96 17.672 31 17.536 31 17.4C31 17.1878 30.9157 16.9843 30.7657 16.8343C30.6157 16.6843 30.4122 16.6 30.2 16.6H18.368L17.616 15M19.8 27.8C18.912 27.8 18.2 28.512 18.2 29.4C18.2 29.8243 18.3686 30.2313 18.6686 30.5314C18.9687 30.8314 19.3757 31 19.8 31C20.2243 31 20.6313 30.8314 20.9314 30.5314C21.2314 30.2313 21.4 29.8243 21.4 29.4C21.4 28.9757 21.2314 28.5687 20.9314 28.2686C20.6313 27.9686 20.2243 27.8 19.8 27.8Z" fill="#F16855"/>
</svg>
