<svg width="83" height="58" viewBox="0 0 83 58" fill="none" xmlns="http://www.w3.org/2000/svg">
<path d="M2.00924 33.1346C1.43835 33.1346 0.960759 32.9357 0.576456 32.538C0.192152 32.1403 0 31.6473 0 31.059C0 30.4707 0.200506 29.9791 0.601519 29.5841C1.00253 29.1892 1.49823 28.9917 2.08861 28.9917H16.6253C17.2185 28.9917 17.7156 29.1906 18.1166 29.5883C18.5176 29.986 18.7181 30.479 18.7181 31.0673C18.7181 31.6556 18.5176 32.1472 18.1166 32.5421C17.7156 32.9371 17.2199 33.1346 16.6295 33.1346H2.00924ZM23.7851 58C20.8889 58 18.4229 56.9919 16.3872 54.9757C14.3515 52.9678 13.3337 50.5235 13.3337 47.6429H7.5524C6.61949 47.6429 5.87456 47.2976 5.31759 46.6071C4.76063 45.9167 4.57544 45.1281 4.76202 44.2416L6.10291 39.3489H16.5251C18.8587 39.3489 20.8318 38.5479 22.4442 36.946C24.0566 35.3441 24.8628 33.3831 24.8628 31.0631C24.8628 29.7927 24.5843 28.6189 24.0273 27.5417C23.4704 26.4646 22.6962 25.5725 21.7048 24.8654H29.2864C31.6257 24.8654 33.6029 24.0645 35.2181 22.4626C36.8333 20.8607 37.6409 18.9011 37.6409 16.5839C37.6409 14.2666 36.8333 12.3057 35.2181 10.701C33.6029 9.09633 31.6257 8.294 29.2864 8.294H14.6996L15.9695 3.73686C16.2257 2.65143 16.7687 1.75795 17.5986 1.05643C18.4201 0.352143 19.4129 0 20.577 0H62.5747C63.644 0 64.5171 0.425334 65.1938 1.276C65.8677 2.12667 66.0835 3.074 65.8412 4.118L63.4519 14.5H68.7611C69.8305 14.5 70.8428 14.7375 71.798 15.2126C72.7559 15.6849 73.544 16.3394 74.1622 17.1763L81.6687 27.1109C82.2758 27.9173 82.6698 28.7583 82.8509 29.6339C83.0347 30.5066 83.0486 31.4236 82.8926 32.3847L80.3947 44.9666C80.2387 45.773 79.8433 46.4207 79.2083 46.9096C78.5734 47.3984 77.8521 47.6429 77.0445 47.6429H75.0269C75.0269 50.5125 74.0133 52.9568 71.9859 54.9757C69.9586 56.9947 67.494 58.0028 64.5923 58C61.6905 57.9972 59.2245 56.9891 57.1944 54.9757C55.1615 52.965 54.145 50.5208 54.145 47.6429H34.2197C34.2197 50.5125 33.2061 52.9568 31.1787 54.9757C29.1514 56.9947 26.6868 58.0028 23.7851 58ZM10.3678 18.6511C9.77468 18.6511 9.27759 18.4523 8.87658 18.0546C8.47557 17.6569 8.27506 17.1639 8.27506 16.5756C8.27506 15.9873 8.47557 15.4957 8.87658 15.1007C9.27759 14.7058 9.77329 14.5083 10.3637 14.5083H29.1611C29.7543 14.5083 30.2514 14.7071 30.6524 15.1049C31.0506 15.5026 31.2497 15.9956 31.2497 16.5839C31.2497 17.1721 31.0506 17.6638 30.6524 18.0587C30.2542 18.4537 29.7571 18.6511 29.1611 18.6511H10.3678ZM23.7767 53.8571C25.4949 53.8571 26.9695 53.2481 28.2004 52.0301C29.4285 50.8094 30.0425 49.347 30.0425 47.6429C30.0425 45.9388 29.4285 44.4763 28.2004 43.2556C26.9723 42.0348 25.4977 41.4258 23.7767 41.4286C22.0557 41.4313 20.5811 42.0403 19.353 43.2556C18.1249 44.4763 17.5109 45.9388 17.5109 47.6429C17.5109 49.347 18.1249 50.8094 19.353 52.0301C20.5839 53.2481 22.0585 53.8571 23.7767 53.8571ZM64.5881 53.8571C66.3063 53.8571 67.7795 53.2481 69.0076 52.0301C70.2357 50.8094 70.8497 49.347 70.8497 47.6429C70.8497 45.9388 70.2357 44.4763 69.0076 43.2556C67.7795 42.0348 66.3049 41.4258 64.5839 41.4286C62.8629 41.4313 61.3897 42.0403 60.1644 43.2556C58.9335 44.4763 58.3181 45.9388 58.3181 47.6429C58.3181 49.347 58.9321 50.8094 60.1602 52.0301C61.3911 53.2481 62.8671 53.8571 64.5881 53.8571ZM58.8068 34.1786H78.2434L78.9786 30.4914L70.0477 18.6429H62.4535L58.8068 34.1786Z" fill="#F1614A"/>
</svg>
