<svg width="83" height="67" viewBox="0 0 83 67" fill="none" xmlns="http://www.w3.org/2000/svg">
<path d="M31.2028 25.7723C31.4492 21.778 33.4464 17.8355 36.9091 15.4233C36.2347 14.0226 34.847 13.05 33.2 13.05H29.3872L33.3686 10.1969C34.3023 9.53546 34.5228 8.23858 33.8484 7.30483L32.6423 5.61889C31.9809 4.68514 30.6841 4.46467 29.7503 5.13905L25.6003 8.10889L27.0917 4.14046C27.4937 3.06405 26.9491 1.87092 25.8727 1.46889L23.9273 0.742643C22.8509 0.340612 21.6578 0.885299 21.2558 1.96171L18.675 8.83514L16.0942 1.94874C15.6922 0.87233 14.4991 0.327643 13.4227 0.729674L11.4773 1.45592C10.4009 1.85796 9.85625 3.06405 10.2712 4.12749L11.7627 8.09592L7.59969 5.13905C6.66594 4.47764 5.36906 4.68514 4.70766 5.61889L3.50156 7.30483C2.84016 8.23858 3.04766 9.53546 3.98141 10.1969L7.96281 13.05H4.15C1.85453 13.05 0 14.9045 0 17.2V62.85C0 65.1455 1.85453 67 4.15 67H26.0542C25.3409 65.768 24.9 64.3673 24.9 62.85V33.8C24.9 29.9223 27.5975 26.6672 31.2028 25.7723ZM29.05 62.85C29.05 65.1455 30.9045 67 33.2 67H53.95V50.4H29.05V62.85ZM58.1 67H78.85C81.1455 67 83 65.1455 83 62.85V50.4H58.1V67ZM78.85 29.65H76.2044C76.5416 28.6644 76.775 27.6398 76.775 26.5634C76.775 21.9595 73.2734 17.2 67.4245 17.2C61.1866 17.2 57.5813 23.3861 56.025 26.9655C54.4558 23.3861 50.8505 17.2 44.6255 17.2C38.7766 17.2 35.275 21.9595 35.275 26.5634C35.275 27.6398 35.4955 28.6644 35.8456 29.65H33.2C30.9045 29.65 29.05 31.5045 29.05 33.8V46.25H53.95V29.65H55.9342L56.025 29.6241L56.1158 29.65H58.1V46.25H83V33.8C83 31.5045 81.1455 29.65 78.85 29.65ZM43.575 29.65C43.2248 29.4684 42.9136 29.2609 42.6413 29.0275C41.6945 28.1975 41.5 27.2378 41.5 26.5634C41.5 25.3055 42.33 23.425 44.6255 23.425C47.0506 23.425 49.2423 26.9784 50.3966 29.65H43.575ZM69.4088 29.0275C69.1364 29.2609 68.8252 29.4684 68.475 29.65H61.6534C62.7947 27.0173 64.9994 23.425 67.4245 23.425C69.72 23.425 70.55 25.3055 70.55 26.5634C70.55 27.2378 70.3555 28.1975 69.4088 29.0275Z" fill="#F1614A"/>
</svg>
