<svg width="75" height="71" viewBox="0 0 75 71" fill="none" xmlns="http://www.w3.org/2000/svg">
<path d="M67.7653 53.25C69.8084 53.25 71.5308 53.96 72.9325 55.38C74.3342 56.8 75.0232 58.4567 74.9994 60.35L46.3837 71L21.4386 63.9V31.95H28.3876L54.2949 41.4995C56.148 42.2332 57.0745 43.5585 57.0745 45.4755C57.0745 46.5878 56.6706 47.5582 55.8629 48.3865C55.0552 49.2148 54.0336 49.6527 52.7982 49.7H42.8201L36.5839 47.3215L35.4079 50.6585L42.8201 53.25H67.7653ZM53.5109 4.3665C56.0292 1.4555 59.2364 0 63.1326 0C66.3636 0 69.0957 1.18333 71.3289 3.55C73.5621 5.91667 74.75 8.63833 74.8925 11.715C74.8925 14.1527 73.7046 17.0637 71.3289 20.448C68.9532 23.8323 66.6131 26.6605 64.3086 28.9325C62.0042 31.2045 58.4049 34.577 53.5109 39.05C48.5694 34.577 44.9345 31.2045 42.6063 28.9325C40.2781 26.6605 37.938 23.8323 35.5861 20.448C33.2341 17.0637 32.0818 14.1527 32.1294 11.715C32.1294 8.49633 33.2816 5.77467 35.5861 3.55C37.8905 1.32533 40.6701 0.142 43.9249 0C47.726 0 50.9214 1.4555 53.5109 4.3665ZM0 31.95H14.3114V71H0V31.95Z" fill="#F1614A"/>
</svg>
