<svg width="18" height="24" viewBox="0 0 18 24" fill="none" xmlns="http://www.w3.org/2000/svg">
<path d="M17.3699 17.4L15.3749 14.13V9.49497C15.4459 8.26257 15.1666 7.03526 14.5693 5.95492C13.9721 4.87458 13.0813 3.98533 11.9999 3.38997C12.0144 3.20024 12.0144 3.00969 11.9999 2.81997C11.9883 2.43777 11.9014 2.0616 11.7443 1.71298C11.5872 1.36436 11.363 1.05013 11.0843 0.788229C10.8057 0.526332 10.4782 0.321914 10.1206 0.186659C9.76291 0.0514048 9.3821 -0.012034 8.99991 -3.06536e-05C8.61771 -0.012034 8.2369 0.0514048 7.87924 0.186659C7.52158 0.321914 7.19408 0.526332 6.91547 0.788229C6.63686 1.05013 6.41259 1.36436 6.25549 1.71298C6.09839 2.0616 6.01154 2.43777 5.99991 2.81997C5.97726 3.00929 5.97726 3.20064 5.99991 3.38997C4.91853 3.98533 4.02772 4.87458 3.43048 5.95492C2.83324 7.03526 2.55396 8.26257 2.62491 9.49497V14.13L0.629905 17.4C0.457336 17.6834 0.363087 18.0076 0.356784 18.3394C0.350481 18.6712 0.43235 18.9987 0.594029 19.2885C0.755709 19.5783 0.991407 19.82 1.27705 19.9889C1.5627 20.1578 1.88806 20.2479 2.21991 20.25H4.87491C4.9443 21.2871 5.41269 22.257 6.18179 22.9561C6.95089 23.6553 7.96091 24.0294 8.99991 24C10.0389 24.0294 11.0489 23.6553 11.818 22.9561C12.5871 22.257 13.0555 21.2871 13.1249 20.25H15.7799C16.1118 20.2479 16.4371 20.1578 16.7228 19.9889C17.0084 19.82 17.2441 19.5783 17.4058 19.2885C17.5675 18.9987 17.6493 18.6712 17.643 18.3394C17.6367 18.0076 17.5425 17.6834 17.3699 17.4ZM7.87491 2.81997C7.90157 2.54661 8.03429 2.29459 8.24459 2.11793C8.4549 1.94127 8.72605 1.85405 8.99991 1.87497C9.27376 1.85405 9.54491 1.94127 9.75522 2.11793C9.96552 2.29459 10.0982 2.54661 10.1249 2.81997C9.75027 2.79651 9.37454 2.79651 8.99991 2.81997C8.62527 2.79651 8.24954 2.79651 7.87491 2.81997ZM8.99991 22.125C8.4579 22.1522 7.92549 21.9745 7.50858 21.6271C7.09168 21.2796 6.82083 20.788 6.74991 20.25H11.2499C11.179 20.788 10.9081 21.2796 10.4912 21.6271C10.0743 21.9745 9.54191 22.1522 8.99991 22.125ZM2.21991 18.375L4.22991 15.12L4.49991 14.655V9.49497C4.4963 8.37162 4.80813 7.26982 5.39991 6.31497C5.80823 5.75535 6.35425 5.31075 6.985 5.02428C7.61575 4.73782 8.30982 4.61921 8.99991 4.67997C9.68999 4.61921 10.3841 4.73782 11.0148 5.02428C11.6456 5.31075 12.1916 5.75535 12.5999 6.31497C13.1917 7.26982 13.5035 8.37162 13.4999 9.49497V14.655L13.7699 15.12L15.7799 18.375H2.21991Z" fill="black"/>
</svg>
