<svg width="80" height="80" viewBox="0 0 80 80" fill="none" xmlns="http://www.w3.org/2000/svg">
<path d="M54.4 58L55.1559 58.756C56.4844 60.0844 57.1468 60.7468 57.9496 60.7C58.7524 60.6568 59.3392 59.926 60.5128 58.4572L65.2 52.6M55.0156 25.276V31M55.0156 25.276C55.0156 22.5616 57.298 20.362 60.1096 20.362C62.9176 20.362 65.2 22.5616 65.2 25.2724V31M55.0156 25.276V15.4516C55.0156 12.7408 52.7367 10.5412 49.9251 10.5412C47.1135 10.5412 44.8311 12.7372 44.8311 15.4516M44.8311 15.4516V31M44.8311 15.4516V8.9104C44.8311 6.196 42.5559 4 39.7407 4C36.9255 4 34.6503 6.196 34.6503 8.9104V18.724M34.6503 18.724C34.6503 16.0132 32.3679 13.8136 29.5563 13.8136C26.7483 13.8136 24.4659 16.0096 24.4659 18.724V42.2932C24.4659 43.7908 22.5471 44.5 21.5031 43.3912L13.259 34.6108C12.5582 33.7986 11.6188 33.2283 10.5748 32.9814C9.53081 32.7344 8.4355 32.8234 7.44503 33.2356C3.81622 34.7368 2.96302 40.0324 5.32103 43.0852C9.36024 48.3124 13.493 55.444 16.8339 61.7332C21.3699 70.276 30.3159 76 40.2591 76M34.6503 18.724V31M43.5999 52.4344V53.824C43.5999 58.1512 43.5999 60.3148 44.1327 62.2948C44.7984 64.7507 46.0512 67.0079 47.7831 68.872C49.1871 70.3912 51.0447 71.572 54.7564 73.9372C56.416 74.9956 57.2476 75.5248 58.1332 75.7732C59.224 76.0756 60.3796 76.0756 61.4704 75.7732C62.3524 75.5248 63.184 74.9956 64.8436 73.9372C68.5552 71.572 70.4128 70.3912 71.8168 68.872C73.5487 67.0079 74.8015 64.7507 75.4672 62.2948C76 60.3148 76 58.1548 76 53.824V52.4344C76 49.7416 76 48.3952 75.4888 47.2576C75.168 46.5554 74.7173 45.9202 74.1604 45.3856C73.2496 44.5216 71.9572 44.0464 69.3724 43.0996L64.066 41.1556C61.9564 40.3852 60.9016 40 59.8 40C58.6984 40 57.6436 40.3852 55.534 41.1592L50.2275 43.1032C47.6427 44.0464 46.3503 44.518 45.4395 45.3856C44.8813 45.9199 44.4294 46.5551 44.1075 47.2576C43.5999 48.3952 43.5999 49.7416 43.5999 52.4344Z" stroke="#F1614A" stroke-width="6.22502" stroke-linecap="round" stroke-linejoin="round"/>
</svg>
