<svg width="20" height="20" viewBox="0 0 20 20" fill="none" xmlns="http://www.w3.org/2000/svg">
<path d="M13.658 13.6877C14.2938 13.052 14.7981 12.2972 15.1422 11.4666C15.4862 10.6359 15.6633 9.74562 15.6633 8.84652C15.6633 7.94743 15.4862 7.05713 15.1422 6.22647C14.7981 5.39581 14.2938 4.64106 13.658 4.0053C13.0223 3.36954 12.2675 2.86523 11.4369 2.52116C10.6062 2.17709 9.7159 2 8.8168 2C7.9177 2 7.02741 2.17709 6.19675 2.52116C5.36609 2.86523 4.61133 3.36954 3.97558 4.0053C2.6916 5.28927 1.97028 7.03071 1.97028 8.84652C1.97028 10.6623 2.6916 12.4038 3.97558 13.6877C5.25955 14.9717 7.00099 15.693 8.8168 15.693C10.6326 15.693 12.3741 14.9717 13.658 13.6877ZM13.658 13.6877L17.9703 18" stroke="black" stroke-width="2.5" stroke-linecap="round" stroke-linejoin="round"/>
</svg>
