<svg width="19" height="19" viewBox="0 0 19 19" fill="none" xmlns="http://www.w3.org/2000/svg">
<path d="M17.5002 0.368081C17.1653 0.18158 16.797 0.0630105 16.4163 0.019144C16.0356 -0.0247226 15.65 0.00697347 15.2815 0.112422C14.9131 0.217871 14.5689 0.395006 14.2688 0.63371C13.9687 0.872415 13.7185 1.16801 13.5324 1.50362L8.11598 11.269L5.01609 8.16341C4.74696 7.88425 4.42502 7.66157 4.06907 7.50839C3.71312 7.3552 3.33028 7.27457 2.94289 7.2712C2.5555 7.26783 2.17132 7.34178 1.81277 7.48875C1.45421 7.63571 1.12846 7.85274 0.854528 8.12718C0.580592 8.40162 0.363956 8.72796 0.217259 9.08717C0.0705627 9.44639 -0.00325615 9.83127 0.000110157 10.2194C0.00347646 10.6075 0.0839605 10.991 0.236866 11.3476C0.389771 11.7042 0.612035 12.0267 0.89069 12.2964L6.72577 18.1421C7.27718 18.696 8.02116 19 8.78847 19L9.19255 18.9708C9.63973 18.9081 10.0663 18.7423 10.4387 18.4864C10.811 18.2305 11.119 17.8916 11.3384 17.4962L18.6322 4.3432C18.8185 4.00773 18.9369 3.6388 18.9808 3.25747C19.0247 2.87614 18.9932 2.48988 18.8881 2.12075C18.7829 1.75163 18.6063 1.40686 18.3682 1.10613C18.13 0.805407 17.8351 0.554617 17.5002 0.368081Z" fill="#31D000"/>
</svg>
